{"title":"Game.of.Thrones.S01E01.HDrip.720p.AC3.Viet.[KSTE].mkv","uid":9359360,"size":1180098107,"categoryP":"video","categoryS":"hd___movies","magnet":"?xt=urn:btih:465e99ad3de7613d61eb98ae0681876c7f56c66e&amp;dn=Game.of.Thrones.S01E01.HDrip.720p.AC3.Viet.%5BKSTE%5D.mkv&amp;tr=udp%3A%2F%2Ftracker.openbittorrent.com%3A80&amp;tr=udp%3A%2F%2Fopen.demonii.com%3A1337&amp;tr=udp%3A%2F%2Ftracker.coppersurfer.tk%3A6969&amp;tr=udp%3A%2F%2Fexodus.desync.com%3A6969","seeders":0,"leechers":2,"uploader":"jessketeer","files":-1,"time":1387279821,"description":"VIETNAMESE HARDSUB!\nVIETNAMESE HARDSUB!\nVIETNAMESE HARDSUB!\nVIETNAMESE HARDSUB!\nVIETNAMESE HARDSUB!\nVIETNAMESE HARDSUB!\n\n\n\n\nFormat                                   : Matroska\nFormat version                           : Version 2\nFile size                                : 1.01 GiB\nDuration                                 : 1h 1mn\nOverall bit rate                         : 2 345 Kbps\nEncoded date                             : UTC 2013-12-09 23:38:13\nWriting application                      : mkvmerge v6.2.0 ('Promised Land') built on Apr 28 2013 12:22:01\nWriting library                          : libebml v1.3.0 + libmatroska v1.4.0\n\nVideo\nID                                       : 1\nFormat                                   : AVC\nFormat/Info                              : Advanced Video Codec\nFormat profile                           : &lt;a class=&quot;__cf_email__&quot; href=&quot;/cdn-cgi/l/email-protection&quot; data-cfemail=&quot;e2aa8b858aa2aed6ccd3&quot;&gt;[email&amp;#160;protected]&lt;/a&gt;&lt;script data-cfhash='f9e31' type=&quot;text/javascript&quot;&gt;\n/* &lt;![CDATA[ */!function(){try{var t=&quot;currentScript&quot;in document?document.currentScript:function(){for(var t=document.getElementsByTagName(&quot;script&quot;),e=t.length;e--;)if(t[e].getAttribute(&quot;data-cfhash&quot;))return t[e]}();if(t&amp;&amp;t.previousSibling){var e,r,n,i,c=t.previousSibling,a=c.getAttribute(&quot;data-cfemail&quot;);if(a){for(e=&quot;&quot;,r=parseInt(a.substr(0,2),16),n=2;a.length-n;n+=2)i=parseInt(a.substr(n,2),16)^r,e+=String.fromCharCode(i);e=document.createTextNode(e),c.parentNode.replaceChild(e,c)}t.parentNode.removeChild(t);}}catch(u){}}()/* ]]&gt; */&lt;/script&gt;\nFormat settings, CABAC                   : Yes\nFormat settings, ReFrames                : 4 frames\nFormat settings, GOP                     : M=1, N=7\nCodec ID                                 : V_MPEG4/ISO/AVC\nDuration                                 : 1h 1mn\nBit rate                                 : 2 150 Kbps\nWidth                                    : 1 280 pixels\nHeight                                   : 720 pixels\nDisplay aspect ratio                     : 16:9\nFrame rate mode                          : Constant\nFrame rate                               : 27.985 fps\nOriginal frame rate                      : 27.972 fps\nColor space                              : YUV\nChroma subsampling                       : 4:2:0\nBit depth                                : 8 bits\nScan type                                : Progressive\nBits/(Pixel*Frame)                       : 0.083\nStream size                              : 928 MiB (90%)\nWriting library                          : x264 core 133 r2334 a3ac64b\n\n\nAudio\nID                                       : 2\nFormat                                   : AC-3\nFormat/Info                              : Audio Coding 3\nMode extension                           : CM (complete main)\nFormat settings, Endianness              : Big\nCodec ID                                 : A_AC3\nDuration                                 : 1h 1mn\nBit rate mode                            : Constant\nBit rate                                 : 192 Kbps\nChannel(s)                               : 6 channels\nChannel positions                        : Front: L C R, Side: L R, LFE\nSampling rate                            : 48.0 KHz\nBit depth                                : 16 bits\nCompression mode                         : Lossy\nStream size                              : 84.6 MiB (8%)\nDefault                                  : Yes\nForced                                   : No\n\n","torrent":{"xt":"urn:btih:465e99ad3de7613d61eb98ae0681876c7f56c66e","amp;dn":"Game.of.Thrones.S01E01.HDrip.720p.AC3.Viet.%5BKSTE%5D.mkv","amp;tr":["udp%3A%2F%2Ftracker.openbittorrent.com%3A80","udp%3A%2F%2Fopen.demonii.com%3A1337","udp%3A%2F%2Ftracker.coppersurfer.tk%3A6969","udp%3A%2F%2Fexodus.desync.com%3A6969"],"infoHash":"465e99ad3de7613d61eb98ae0681876c7f56c66e","infoHashBuffer":{"type":"Buffer","data":[70,94,153,173,61,231,97,61,97,235,152,174,6,129,135,108,127,86,198,110]},"announce":[],"urlList":[]}}